<svg width="410" height="270" viewBox="0 0 410 270" xmlns="http://www.w3.org/2000/svg" lang="en" xml:lang="en"><rect x="2" y="2" stroke-width="4" rx="6" width="406" height="266" stroke="rgba(56,139,253,0.4)" fill="#0d1117"/><g font-weight="600" font-size="110pt" font-family="Verdana,Geneva,DejaVu Sans,sans-serif" text-rendering="geometricPrecision"><text x="570" y="301" lengthAdjust="spacingAndGlyphs" textLength="2193" transform="scale(0.123)" fill="#58a6ff">Jack Phat's GitHub Activity</text><svg x="15" y="15" width="25" height="25" viewBox="0 0 16 16"><path fill="#ffffff" fill-rule="evenodd" d="M8 0C3.58 0 0 3.58 0 8c0 3.54 2.29 6.53 5.47 7.59.4.07.55-.17.55-.38 0-.19-.01-.82-.01-1.49-2.01.37-2.53-.49-2.69-.94-.09-.23-.48-.94-.82-1.13-.28-.15-.68-.52-.01-.53.63-.01 1.08.58 1.23.82.72 1.21 1.87.87 2.33.66.07-.52.28-.87.51-1.07-1.78-.2-3.64-.89-3.64-3.95 0-.87.31-1.59.82-2.15-.08-.2-.36-1.02.08-2.12 0 0 .67-.21 2.2.82.64-.18 1.32-.27 2-.27.68 0 1.36.09 2 .27 1.53-1.04 2.2-.82 2.2-.82.44 1.1.16 1.92.08 2.12.51.56.82 1.27.82 2.15 0 3.07-1.87 3.75-3.65 3.95.29.25.54.73.54 1.48 0 1.07-.01 1.93-.01 2.2 0 .21.15.46.55.38A8.013 8.013 0 0016 8c0-4.42-3.58-8-8-8z"/></svg><svg x="370" y="15" width="25" height="25" viewBox="0 0 16 16"><path fill="#ffffff" fill-rule="evenodd" d="M8 0C3.58 0 0 3.58 0 8c0 3.54 2.29 6.53 5.47 7.59.4.07.55-.17.55-.38 0-.19-.01-.82-.01-1.49-2.01.37-2.53-.49-2.69-.94-.09-.23-.48-.94-.82-1.13-.28-.15-.68-.52-.01-.53.63-.01 1.08.58 1.23.82.72 1.21 1.87.87 2.33.66.07-.52.28-.87.51-1.07-1.78-.2-3.64-.89-3.64-3.95 0-.87.31-1.59.82-2.15-.08-.2-.36-1.02.08-2.12 0 0 .67-.21 2.2.82.64-.18 1.32-.27 2-.27.68 0 1.36.09 2 .27 1.53-1.04 2.2-.82 2.2-.82.44 1.1.16 1.92.08 2.12.51.56.82 1.27.82 2.15 0 3.07-1.87 3.75-3.65 3.95.29.25.54.73.54 1.48 0 1.07-.01 1.93-.01 2.2 0 .21.15.46.55.38A8.013 8.013 0 0016 8c0-4.42-3.58-8-8-8z"/></svg><g transform="translate(0, 60)" fill="#c9d1d9"><g transform="translate(15, 0)"><g transform="scale(0.095)"><text x="0" y="132" textLength="3652" lengthAdjust="spacingAndGlyphs">Language Distribution in Public Repositories</text></g></g><g transform="translate(220, 21)"><circle cx="81" cy="81" r="81" fill="#ffffff"/></g><g transform="translate(221, 22)"><path fill-rule="evenodd" fill="#3178c6" d="M 0.0,80.00000000000001 A 80 80 0 1 1 88.32519250034505 159.5656406360949 L 80,80 Z"/><path fill-rule="evenodd" fill="#f1e05a" d="M 88.32519250034505,159.5656406360949 A 80 80 0 0 1 40.0910020693059 149.33449274472162 L 80,80 Z"/><path fill-rule="evenodd" fill="#e34c26" d="M 40.0910020693059,149.33449274472162 A 80 80 0 0 1 16.494849125528376 128.65280888510546 L 80,80 Z"/><path fill-rule="evenodd" fill="#663399" d="M 16.494849125528376,128.65280888510546 A 80 80 0 0 1 3.116088011597384 102.11027085676614 L 80,80 Z"/><path fill-rule="evenodd" fill="#41b883" d="M 3.116088011597384,102.11027085676614 A 80 80 0 0 1 1.270815528863011 94.20265864229945 L 80,80 Z"/><path fill-rule="evenodd" fill="#ff5a03" d="M 1.270815528863011,94.20265864229945 A 80 80 0 0 1 0.4573095994445566 88.54168624109931 L 80,80 Z"/><path fill-rule="evenodd" fill="#fcb32c" d="M 0.4573095994445566,88.54168624109931 A 80 80 0 0 1 0.07521007947960356 83.46813439195813 L 80,80 Z"/><path fill-rule="evenodd" fill="#959da5" d="M 0.07521007947960356,83.46813439195813 A 80 80 0 0 1 0.0 80.00000000000003 L 80,80 Z"/></g><g transform="translate(15, 21)"><rect x="0.5" y="0.5" rx="2" width="15" height="15" fill="#3178c6" stroke-width="1" stroke="#ffffff"/><text transform="scale(0.095)" x="263" y="132" textLength="1568" lengthAdjust="spacingAndGlyphs">TypeScript 73.34%</text></g><g transform="translate(15, 42)"><rect x="0.5" y="0.5" rx="2" width="15" height="15" fill="#f1e05a" stroke-width="1" stroke="#ffffff"/><text transform="scale(0.095)" x="263" y="132" textLength="1412" lengthAdjust="spacingAndGlyphs">JavaScript 9.97%</text></g><g transform="translate(15, 63)"><rect x="0.5" y="0.5" rx="2" width="15" height="15" fill="#e34c26" stroke-width="1" stroke="#ffffff"/><text transform="scale(0.095)" x="263" y="132" textLength="1036" lengthAdjust="spacingAndGlyphs">HTML 6.28%</text></g><g transform="translate(15, 84)"><rect x="0.5" y="0.5" rx="2" width="15" height="15" fill="#663399" stroke-width="1" stroke="#ffffff"/><text transform="scale(0.095)" x="263" y="132" textLength="903" lengthAdjust="spacingAndGlyphs">CSS 5.95%</text></g><g transform="translate(15, 105)"><rect x="0.5" y="0.5" rx="2" width="15" height="15" fill="#41b883" stroke-width="1" stroke="#ffffff"/><text transform="scale(0.095)" x="263" y="132" textLength="897" lengthAdjust="spacingAndGlyphs">Vue 1.62%</text></g><g transform="translate(15, 126)"><rect x="0.5" y="0.5" rx="2" width="15" height="15" fill="#ff5a03" stroke-width="1" stroke="#ffffff"/><text transform="scale(0.095)" x="263" y="132" textLength="1008" lengthAdjust="spacingAndGlyphs">Astro 1.14%</text></g><g transform="translate(15, 147)"><rect x="0.5" y="0.5" rx="2" width="15" height="15" fill="#fcb32c" stroke-width="1" stroke="#ffffff"/><text transform="scale(0.095)" x="263" y="132" textLength="960" lengthAdjust="spacingAndGlyphs">MDX 1.01%</text></g><g transform="translate(15, 168)"><rect x="0.5" y="0.5" rx="2" width="15" height="15" fill="#959da5" stroke-width="1" stroke="#ffffff"/><text transform="scale(0.095)" x="263" y="132" textLength="1047" lengthAdjust="spacingAndGlyphs">Other 0.69%</text></g></g></g></svg>